<svg xmlns="http://www.w3.org/2000/svg" xmlns:xlink="http://www.w3.org/1999/xlink" width="2000" zoomAndPan="magnify" viewBox="0 0 1500 1874.999927" height="2500" preserveAspectRatio="xMidYMid meet" version="1.0"><defs><g/><clipPath id="f578cd3ca8"><path d="M 302 220.855469 L 1197 220.855469 L 1197 1278.355469 L 302 1278.355469 Z M 302 220.855469 " clip-rule="nonzero"/></clipPath></defs><rect x="-150" width="1800" fill="#ffffff" y="-187.499993" height="2249.999912" fill-opacity="1"/><rect x="-150" width="1800" fill="#ffffff" y="-187.499993" height="2249.999912" fill-opacity="1"/><g clip-path="url(#f578cd3ca8)"><path fill="#00004e" d="M 1178.257812 288.726562 C 1157.113281 297.511719 1135.496094 304.90625 1113.402344 310.910156 L 1099.507812 314.550781 C 1096.210938 314.890625 1092.890625 315.550781 1089.59375 316.210938 C 1074.730469 319.582031 1059.730469 322.125 1044.585938 323.835938 C 1034.992188 324.835938 1025.417969 325.472656 1015.136719 325.8125 C 1006.542969 326.15625 997.605469 325.8125 988.984375 325.8125 C 974.121094 325.070312 959.335938 323.53125 944.636719 321.195312 C 934.382812 319.191406 924.785156 317.214844 915.847656 314.890625 C 895.390625 309.390625 875.644531 302 856.605469 292.707031 L 852.625 290.730469 C 844.691406 286.746094 836.070312 281.789062 827.15625 276.484375 L 821.859375 272.503906 C 817.921875 270.234375 814.167969 267.695312 810.601562 264.882812 C 792.855469 251.90625 776.632812 237.25 761.933594 220.90625 L 737.78125 220.90625 C 723.261719 237.4375 707.046875 252.097656 689.136719 264.882812 C 685.839844 267.324219 681.8125 270.183594 677.5625 272.820312 L 672.921875 275.800781 C 662.667969 282.105469 654.730469 287.066406 647.113281 290.707031 L 642.8125 292.683594 C 623.855469 302.191406 604.109375 309.585938 583.574219 314.867188 C 574.976562 317.3125 565.378906 319.167969 555.125 321.171875 C 540.421875 323.488281 525.640625 325.027344 510.777344 325.789062 L 499.203125 325.789062 C 494.90625 326.128906 489.605469 325.789062 484.550781 325.789062 C 474.296875 325.445312 464.355469 324.8125 455.101562 323.808594 C 438.546875 321.804688 423.992188 319.511719 410.4375 316.480469 C 406.457031 315.480469 403.113281 314.820312 400.183594 314.039062 C 396.261719 313.28125 392.402344 312.289062 388.605469 311.054688 L 386.164062 310.714844 C 364.105469 304.609375 342.484375 297.214844 321.308594 288.53125 L 302.773438 301.113281 L 303.113281 1095.386719 C 303.089844 1102 303.449219 1108.589844 304.195312 1115.160156 C 304.941406 1121.726562 306.066406 1128.230469 307.570312 1134.667969 C 309.074219 1141.109375 310.949219 1147.4375 313.195312 1153.65625 C 315.4375 1159.875 318.035156 1165.941406 320.988281 1171.859375 C 325.304688 1179.417969 330.050781 1186.699219 335.226562 1193.699219 C 338.757812 1198.300781 342.617188 1202.609375 346.800781 1206.625 C 353.777344 1213.566406 361.457031 1219.613281 369.84375 1224.761719 C 378.230469 1229.910156 387.097656 1234.019531 396.445312 1237.089844 C 399.25 1237.710938 402.007812 1238.484375 404.722656 1239.410156 L 406.703125 1240.070312 C 408.515625 1240.316406 410.28125 1240.757812 412 1241.390625 C 414.980469 1241.707031 417.273438 1242.367188 419.9375 1242.710938 C 424.417969 1243.511719 428.9375 1243.953125 433.488281 1244.027344 C 442.972656 1244.640625 452.464844 1244.753906 461.960938 1244.371094 C 477.535156 1243.097656 492.945312 1240.742188 508.1875 1237.304688 C 523.429688 1233.867188 538.359375 1229.382812 552.972656 1223.847656 C 567.570312 1218.59375 582.570312 1215.058594 597.976562 1213.246094 L 599.636719 1213.246094 C 602.492188 1212.859375 605.355469 1212.640625 608.234375 1212.585938 L 612.214844 1212.242188 C 616.730469 1211.910156 621.25 1211.910156 625.765625 1212.242188 L 626.425781 1212.242188 C 636.894531 1212.621094 647.261719 1213.835938 657.535156 1215.882812 C 666.351562 1217.582031 674.953125 1220.027344 683.347656 1223.210938 L 685.351562 1224.214844 C 688.472656 1225.289062 691.527344 1226.535156 694.507812 1227.953125 C 697.488281 1229.371094 700.382812 1230.953125 703.1875 1232.699219 C 705.992188 1234.445312 708.6875 1236.34375 711.277344 1238.394531 C 713.863281 1240.445312 716.332031 1242.636719 718.671875 1244.964844 C 721.015625 1247.296875 723.21875 1249.75 725.285156 1252.328125 C 727.347656 1254.90625 729.261719 1257.59375 731.023438 1260.386719 C 732.785156 1263.183594 734.382812 1266.066406 735.820312 1269.042969 C 737.253906 1272.019531 738.519531 1275.066406 739.609375 1278.183594 L 759.144531 1278.183594 C 760.226562 1275.023438 761.484375 1271.929688 762.910156 1268.90625 C 764.339844 1265.886719 765.929688 1262.953125 767.683594 1260.109375 C 769.441406 1257.265625 771.347656 1254.527344 773.410156 1251.894531 C 775.472656 1249.265625 777.671875 1246.757812 780.015625 1244.371094 C 782.355469 1241.988281 784.820312 1239.742188 787.414062 1237.632812 C 790.003906 1235.523438 792.707031 1233.566406 795.515625 1231.761719 C 798.328125 1229.953125 801.230469 1228.308594 804.226562 1226.828125 C 807.21875 1225.34375 810.289062 1224.035156 813.429688 1222.894531 L 814.746094 1222.234375 C 823.378906 1219.023438 832.203125 1216.484375 841.21875 1214.613281 C 845.171875 1213.953125 848.835938 1212.949219 852.792969 1212.609375 C 859.054688 1211.71875 865.347656 1211.171875 871.667969 1210.972656 L 890.203125 1210.972656 C 891.523438 1210.972656 892.839844 1211.3125 894.5 1211.3125 C 896.820312 1211.632812 898.800781 1211.972656 901.4375 1212.292969 C 916.695312 1214.269531 931.582031 1217.804688 946.101562 1222.894531 C 960.609375 1228.367188 975.429688 1232.796875 990.566406 1236.179688 C 1005.699219 1239.5625 1020.992188 1241.871094 1036.453125 1243.097656 C 1046.164062 1243.765625 1055.875 1243.765625 1065.585938 1243.097656 C 1069.882812 1242.757812 1074.519531 1242.097656 1078.476562 1241.464844 C 1080.480469 1241.121094 1082.140625 1240.804688 1083.777344 1240.460938 L 1086.757812 1240.121094 C 1088.417969 1239.460938 1091.394531 1238.800781 1093.375 1238.117188 C 1093.933594 1238.042969 1094.488281 1237.933594 1095.035156 1237.796875 C 1097.175781 1237.398438 1099.277344 1236.84375 1101.335938 1236.136719 L 1102.96875 1235.476562 C 1112.199219 1232.527344 1120.953125 1228.53125 1129.234375 1223.5 C 1137.511719 1218.464844 1145.085938 1212.53125 1151.957031 1205.695312 C 1156.195312 1201.519531 1160.167969 1197.105469 1163.871094 1192.453125 C 1168.757812 1185.515625 1173.46875 1178.210938 1178.109375 1170.269531 C 1181.011719 1164.402344 1183.5625 1158.390625 1185.765625 1152.226562 C 1187.96875 1146.066406 1189.808594 1139.796875 1191.285156 1133.421875 C 1192.757812 1127.046875 1193.863281 1120.609375 1194.589844 1114.105469 C 1195.320312 1107.601562 1195.671875 1101.074219 1195.640625 1094.53125 L 1196.644531 301.261719 Z M 584.574219 971.761719 L 535.589844 971.761719 L 535.589844 922.753906 L 584.574219 922.753906 Z M 584.574219 874.035156 L 535.589844 874.035156 L 535.589844 825.027344 L 584.574219 825.027344 Z M 966.789062 971.761719 L 635.5625 971.761719 L 635.5625 922.753906 L 917.851562 922.753906 L 917.851562 776.40625 L 889.378906 776.40625 L 889.378906 727.691406 L 966.8125 727.691406 Z M 635.539062 682.394531 L 635.539062 633.382812 L 836.800781 633.382812 L 836.800781 874.085938 L 635.609375 874.085938 L 635.609375 825.074219 L 787.839844 825.074219 L 787.839844 682.394531 Z M 966.8125 678.828125 L 917.824219 678.828125 L 917.824219 589.433594 L 584.574219 589.433594 L 584.574219 727.691406 L 736.144531 727.691406 L 736.144531 776.359375 L 535.589844 776.359375 L 535.589844 540.617188 L 966.785156 540.617188 Z M 966.8125 678.828125 " fill-opacity="1" fill-rule="nonzero"/></g><g fill="#00004e" fill-opacity="1"><g transform="translate(163.953347, 1464.413415)"><g><path d="M 109.515625 -83.390625 C 108.617188 -88.191406 105.796875 -91.648438 101.046875 -93.765625 C 96.304688 -95.890625 89.472656 -96.953125 80.546875 -96.953125 C 71.390625 -96.953125 64.859375 -96.085938 60.953125 -94.359375 C 57.046875 -92.628906 55.09375 -90.085938 55.09375 -86.734375 C 55.09375 -84.054688 56.265625 -82.101562 58.609375 -80.875 C 60.953125 -79.644531 64.972656 -78.753906 70.671875 -78.203125 L 119.390625 -74.1875 C 134.128906 -72.957031 145.207031 -69.4375 152.625 -63.625 C 160.050781 -57.820312 163.765625 -49.0625 163.765625 -37.34375 C 163.765625 -26.289062 160.78125 -17.75 154.8125 -11.71875 C 148.84375 -5.6875 140.078125 -1.53125 128.515625 0.75 C 116.960938 3.039062 101.695312 4.1875 82.71875 4.1875 C 64.519531 4.1875 49.78125 2.957031 38.5 0.5 C 27.226562 -1.957031 18.550781 -6.363281 12.46875 -12.71875 C 6.382812 -19.082031 3.117188 -28.070312 2.671875 -39.6875 L 52.921875 -39.6875 C 54.140625 -33.320312 57.234375 -28.9375 62.203125 -26.53125 C 67.171875 -24.132812 74.566406 -22.9375 84.390625 -22.9375 C 94.441406 -22.9375 101.671875 -23.859375 106.078125 -25.703125 C 110.492188 -27.546875 112.703125 -30.421875 112.703125 -34.328125 C 112.703125 -37.566406 111.414062 -39.910156 108.84375 -41.359375 C 106.28125 -42.804688 102.429688 -43.753906 97.296875 -44.203125 L 50.40625 -48.734375 C 35.550781 -50.179688 24.382812 -53.582031 16.90625 -58.9375 C 9.425781 -64.300781 5.6875 -72.84375 5.6875 -84.5625 C 5.6875 -94.5 8.671875 -102.34375 14.640625 -108.09375 C 20.617188 -113.84375 29.160156 -117.890625 40.265625 -120.234375 C 51.378906 -122.578125 65.304688 -123.75 82.046875 -123.75 C 98.679688 -123.75 112.523438 -122.546875 123.578125 -120.140625 C 134.628906 -117.742188 143.253906 -113.585938 149.453125 -107.671875 C 155.648438 -101.753906 158.914062 -93.660156 159.25 -83.390625 Z M 109.515625 -83.390625 "/></g></g></g><g fill="#00004e" fill-opacity="1"><g transform="translate(332.225974, 1464.413415)"><g><path d="M 163.265625 -119.5625 L 163.265625 0 L 120.0625 0 L 120.0625 -45.046875 L 51.578125 -45.046875 L 51.578125 0 L 8.375 0 L 8.375 -119.5625 L 51.578125 -119.5625 L 51.578125 -76.6875 L 120.0625 -76.6875 L 120.0625 -119.5625 Z M 163.265625 -119.5625 "/></g></g></g><g fill="#00004e" fill-opacity="1"><g transform="translate(503.847323, 1464.413415)"><g><path d="M 170.96875 0 L 116.375 0 L 76.6875 -50.90625 L 51.578125 -30.8125 L 51.578125 0 L 8.375 0 L 8.375 -119.5625 L 51.578125 -119.5625 L 51.578125 -73.171875 L 107.671875 -119.5625 L 163.4375 -119.5625 L 109.34375 -76.6875 Z M 170.96875 0 "/></g></g></g><g fill="#00004e" fill-opacity="1"><g transform="translate(674.464037, 1464.413415)"><g><path d="M 91.765625 -123.75 C 120.453125 -123.75 142.078125 -118.5 156.640625 -108 C 171.210938 -97.507812 178.5 -81.4375 178.5 -59.78125 C 178.5 -38.125 171.210938 -22.046875 156.640625 -11.546875 C 142.078125 -1.054688 120.453125 4.1875 91.765625 4.1875 C 63.179688 4.1875 41.601562 -1.054688 27.03125 -11.546875 C 12.46875 -22.046875 5.1875 -38.125 5.1875 -59.78125 C 5.1875 -81.4375 12.46875 -97.507812 27.03125 -108 C 41.601562 -118.5 63.179688 -123.75 91.765625 -123.75 Z M 91.765625 -28.296875 C 104.828125 -28.296875 114.648438 -31.003906 121.234375 -36.421875 C 127.816406 -41.835938 131.109375 -49.625 131.109375 -59.78125 C 131.109375 -69.9375 127.816406 -77.722656 121.234375 -83.140625 C 114.648438 -88.554688 104.828125 -91.265625 91.765625 -91.265625 C 78.703125 -91.265625 68.90625 -88.554688 62.375 -83.140625 C 55.84375 -77.722656 52.578125 -69.9375 52.578125 -59.78125 C 52.578125 -49.625 55.84375 -41.835938 62.375 -36.421875 C 68.90625 -31.003906 78.703125 -28.296875 91.765625 -28.296875 Z M 91.765625 -28.296875 "/></g></g></g><g fill="#00004e" fill-opacity="1"><g transform="translate(858.140707, 1464.413415)"><g><path d="M 8.375 0 L 8.375 -119.5625 L 51.578125 -119.5625 L 51.578125 -33.15625 L 145.015625 -33.15625 L 145.015625 0 Z M 8.375 0 "/></g></g></g><g fill="#00004e" fill-opacity="1"><g transform="translate(1008.162828, 1464.413415)"><g><path d="M 8.375 0 L 8.375 -119.5625 L 51.578125 -119.5625 L 51.578125 -33.15625 L 145.015625 -33.15625 L 145.015625 0 Z M 8.375 0 "/></g></g></g><g fill="#00004e" fill-opacity="1"><g transform="translate(1158.18495, 1464.413415)"><g><path d="M 122.578125 -17.421875 L 55.421875 -17.421875 L 46.890625 0 L -0.5 0 L 60.453125 -119.5625 L 118.046875 -119.5625 L 178.34375 0 L 130.953125 0 Z M 108.515625 -46.21875 L 89.421875 -85.40625 L 88.421875 -85.40625 L 69.328125 -46.21875 Z M 108.515625 -46.21875 "/></g></g></g><g fill="#00004e" fill-opacity="1"><g transform="translate(113.962838, 1635.171872)"><g><path d="M 98.296875 -119.5625 C 120.953125 -119.5625 137.832031 -114.898438 148.9375 -105.578125 C 160.050781 -96.253906 165.609375 -80.988281 165.609375 -59.78125 C 165.609375 -38.570312 160.082031 -23.304688 149.03125 -13.984375 C 137.976562 -4.660156 121.066406 0 98.296875 0 L 8.375 0 L 8.375 -119.5625 Z M 51.578125 -87.90625 L 51.578125 -31.65625 L 86.90625 -31.65625 C 97.175781 -31.65625 104.960938 -33.882812 110.265625 -38.34375 C 115.566406 -42.8125 118.21875 -49.957031 118.21875 -59.78125 C 118.21875 -69.601562 115.566406 -76.742188 110.265625 -81.203125 C 104.960938 -85.671875 97.175781 -87.90625 86.90625 -87.90625 Z M 51.578125 -87.90625 "/></g></g></g><g fill="#00004e" fill-opacity="1"><g transform="translate(284.746996, 1635.171872)"><g><path d="M 8.375 0 L 8.375 -119.5625 L 51.578125 -119.5625 L 51.578125 0 Z M 8.375 0 "/></g></g></g><g fill="#00004e" fill-opacity="1"><g transform="translate(344.521457, 1635.171872)"><g><path d="M 174.828125 0 L 145.1875 0 L 145.1875 -13.5625 C 139.601562 -7.53125 132.316406 -3.0625 123.328125 -0.15625 C 114.335938 2.738281 104.09375 4.1875 92.59375 4.1875 C 63.570312 4.1875 41.75 -1.054688 27.125 -11.546875 C 12.5 -22.046875 5.1875 -38.125 5.1875 -59.78125 C 5.1875 -81.4375 12.46875 -97.507812 27.03125 -108 C 41.601562 -118.5 63.179688 -123.75 91.765625 -123.75 C 119.003906 -123.75 139.375 -119.617188 152.875 -111.359375 C 166.382812 -103.097656 173.53125 -91.597656 174.3125 -76.859375 L 123.078125 -76.859375 C 122.179688 -80.210938 119.304688 -83.453125 114.453125 -86.578125 C 109.597656 -89.703125 102.035156 -91.265625 91.765625 -91.265625 C 78.703125 -91.265625 68.90625 -88.523438 62.375 -83.046875 C 55.84375 -77.578125 52.578125 -69.765625 52.578125 -59.609375 C 52.578125 -37.835938 66.085938 -26.953125 93.109375 -26.953125 C 100.691406 -26.953125 107.023438 -27.816406 112.109375 -29.546875 C 117.191406 -31.285156 120.957031 -33.296875 123.40625 -35.578125 C 125.863281 -37.867188 127.207031 -39.851562 127.4375 -41.53125 L 96.28125 -41.53125 L 96.28125 -66.3125 L 174.828125 -66.3125 Z M 174.828125 0 "/></g></g></g><g fill="#00004e" fill-opacity="1"><g transform="translate(527.193539, 1635.171872)"><g><path d="M 151.71875 -52.75 C 151.71875 -38.34375 148.785156 -26.984375 142.921875 -18.671875 C 137.054688 -10.359375 128.707031 -4.46875 117.875 -1 C 107.050781 2.457031 93.546875 4.1875 77.359375 4.1875 C 61.285156 4.1875 47.890625 2.457031 37.171875 -1 C 26.453125 -4.46875 18.21875 -10.359375 12.46875 -18.671875 C 6.71875 -26.984375 3.84375 -38.34375 3.84375 -52.75 L 3.84375 -62.125 L 47.046875 -62.125 L 47.046875 -53.25 C 47.046875 -44.769531 49.695312 -38.628906 55 -34.828125 C 60.3125 -31.035156 67.765625 -29.140625 77.359375 -29.140625 C 98.128906 -29.140625 108.515625 -37.175781 108.515625 -53.25 L 108.515625 -119.5625 L 151.71875 -119.5625 Z M 151.71875 -52.75 "/></g></g></g><g fill="#00004e" fill-opacity="1"><g transform="translate(687.094408, 1635.171872)"><g><path d="M 8.375 0 L 8.375 -119.5625 L 51.578125 -119.5625 L 51.578125 0 Z M 8.375 0 "/></g></g></g><g fill="#00004e" fill-opacity="1"><g transform="translate(746.868869, 1635.171872)"><g><path d="M 155.390625 -85.734375 L 101.3125 -85.734375 L 101.3125 0 L 58.109375 0 L 58.109375 -85.734375 L 3.84375 -85.734375 L 3.84375 -119.5625 L 155.390625 -119.5625 Z M 155.390625 -85.734375 "/></g></g></g><g fill="#00004e" fill-opacity="1"><g transform="translate(906.100012, 1635.171872)"><g><path d="M 122.578125 -17.421875 L 55.421875 -17.421875 L 46.890625 0 L -0.5 0 L 60.453125 -119.5625 L 118.046875 -119.5625 L 178.34375 0 L 130.953125 0 Z M 108.515625 -46.21875 L 89.421875 -85.40625 L 88.421875 -85.40625 L 69.328125 -46.21875 Z M 108.515625 -46.21875 "/></g></g></g><g fill="#00004e" fill-opacity="1"><g transform="translate(1083.916431, 1635.171872)"><g><path d="M 8.375 0 L 8.375 -119.5625 L 51.578125 -119.5625 L 51.578125 -33.15625 L 145.015625 -33.15625 L 145.015625 0 Z M 8.375 0 "/></g></g></g><g fill="#00004e" fill-opacity="1"><g transform="translate(1233.938552, 1635.171872)"><g><path d="M 51.578125 -74.1875 L 140.15625 -74.1875 L 140.15625 -48.21875 L 51.578125 -48.21875 L 51.578125 -28.96875 L 145.859375 -28.96875 L 145.859375 0 L 8.375 0 L 8.375 -119.5625 L 144.171875 -119.5625 L 144.171875 -91.265625 L 51.578125 -91.265625 Z M 51.578125 -74.1875 "/></g></g></g></svg>